<svg xmlns="http://www.w3.org/2000/svg" viewBox="0 0 24 24"><path d="M12 24C5.373 24 0 18.627 0 12S5.373 0 12 0s12 5.373 12 12-5.373 12-12 12zM6 7.591v2.218c0 .874.712 1.591 1.591 1.591h2.218c.874 0 1.591-.712 1.591-1.591V7.591C11.4 6.717 10.688 6 9.809 6H7.591C6.717 6 6 6.712 6 7.591zm6.6 0v2.218c0 .874.712 1.591 1.591 1.591h2.218c.874 0 1.591-.712 1.591-1.591V7.591C18 6.717 17.288 6 16.409 6h-2.218c-.874 0-1.591.712-1.591 1.591zm-6.6 6.6v2.218C6 17.283 6.712 18 7.591 18h2.218c.874 0 1.591-.712 1.591-1.591v-2.218c0-.874-.712-1.591-1.591-1.591H7.591C6.717 12.6 6 13.312 6 14.191zm6.6 0v2.218c0 .874.712 1.591 1.591 1.591h2.218c.874 0 1.591-.712 1.591-1.591v-2.218c0-.874-.712-1.591-1.591-1.591h-2.218c-.874 0-1.591.712-1.591 1.591z" fill-rule="evenodd"/></svg>
