<svg xmlns="http://www.w3.org/2000/svg" viewBox="0 0 63 54"><g fill-rule="nonzero"><path d="M21 24c4.963 0 9-5.382 9-12 0-6.616-4.037-12-9-12-4.962 0-9 5.384-9 12 0 6.618 4.038 12 9 12zM48.138 36.172c-.188-.25-.368-.487-.465-.69-2.051-4.293-7.675-9.354-16.786-9.48l-.35-.002c-8.972 0-14.554 4.793-16.787 9.281-.077.153-.247.353-.427.563-.212.247-.423.5-.603.774-1.886 2.87-2.848 6.1-2.706 9.095.148 3.18 1.51 5.736 3.829 7.193a5.58 5.58 0 003.007.884c2.186 0 4.188-1.204 6.508-2.598 1.475-.888 2.998-1.805 4.69-2.491.19-.062.967-.155 2.238-.155 1.511 0 2.596.132 2.828.21 1.652.713 3.103 1.648 4.506 2.55C39.77 52.692 41.802 54 44.005 54c.946 0 1.862-.244 2.727-.724 4.771-2.65 5.68-9.92 2.027-16.205a8.903 8.903 0 00-.62-.899zM41.001 24C45.962 24 50 18.618 50 12c0-6.616-4.038-12-8.999-12C36.037 0 32 5.384 32 12c0 6.618 4.037 12 9.001 12zM55.5 18c-4.208 0-7.5 4.173-7.5 9.501C48 32.826 51.294 37 55.5 37c4.204 0 7.5-4.174 7.5-9.499C63 22.173 59.706 18 55.5 18zM15 27.501C15 22.173 11.705 18 7.5 18S0 22.173 0 27.501C0 32.826 3.295 37 7.5 37c4.206 0 7.5-4.174 7.5-9.499z"/></g></svg>
